PathFileType	4	(X/Y/Z)	C:/Users/opensim2020/Desktop/walking_exp_matlab/subject03_walking15_straight_03.trc	
DataRate	CameraRate	NumFrames	NumMarkers	Units	OrigDataRate	OrigDataStartFrame	OrigNumFrames	
100.00	100.00	6	47	mm	100.00	1577	220	
Frame#	Time	LFHD			RFHD			LBHD			RBHD			C7			T10			CLAV			STRN			RBAK			LSHO			LUPA			LELB			LFRM			LWRA			LWRB			LFIN			RSHO			RUPA			RELB			RFRM			RWRA			RWRB			RFIN			LASI			RASI			LPSI			RPSI			LTHI			LKNE			LTIB			LANK			LHEE			LTOE			RTHI			RKNE			RTIB			RANK			RHEE			RTOE			*39			*40			*41			*42			*43			*44			*45			*46			
		X1	Y1	Z1	X2	Y2	Z2	X3	Y3	Z3	X4	Y4	Z4	X5	Y5	Z5	X6	Y6	Z6	X7	Y7	Z7	X8	Y8	Z8	X9	Y9	Z9	X10	Y10	Z10	X11	Y11	Z11	X12	Y12	Z12	X13	Y13	Z13	X14	Y14	Z14	X15	Y15	Z15	X16	Y16	Z16	X17	Y17	Z17	X18	Y18	Z18	X19	Y19	Z19	X20	Y20	Z20	X21	Y21	Z21	X22	Y22	Z22	X23	Y23	Z23	X24	Y24	Z24	X25	Y25	Z25	X26	Y26	Z26	X27	Y27	Z27	X28	Y28	Z28	X29	Y29	Z29	X30	Y30	Z30	X31	Y31	Z31	X32	Y32	Z32	X33	Y33	Z33	X34	Y34	Z34	X35	Y35	Z35	X36	Y36	Z36	X37	Y37	Z37	X38	Y38	Z38	X39	Y39	Z39	X40	Y40	Z40	X41	Y41	Z41	X42	Y42	Z42	X43	Y43	Z43	X44	Y44	Z44	X45	Y45	Z45	X46	Y46	Z46	X47	Y47	Z47	

1	0.000	1365.86218	-1256.11304	1609.74316	1497.61096	-1247.15466	1618.57727	1380.41663	-1381.04541	1561.02844	1510.32703	-1368.29468	1569.66162	1443.52698	-1401.80249	1409.39417	1448.41956	-1459.30701	1104.30347	1432.13354	-1280.25415	1328.59827	1422.58337	-1254.94849	1157.60315	1547.32971	-1451.64441	1239.98901	1280.91260	-1340.71155	1369.67468	1202.91284	-1375.57483	1177.67993	1178.61633	-1382.44604	1057.51147	1159.55615	-1373.00244	928.77386	1169.18506	-1366.45374	805.53577	1127.01563	-1398.13025	822.04614	1115.52649	-1393.32214	740.47296	1594.26904	-1311.90967	1354.69678	1686.23779	-1277.50049	1146.94238	1710.34912	-1235.93494	1045.28247	1719.93506	-1177.66296	921.68390	1686.86548	-1121.40161	838.51215	1733.37378	-1146.72632	827.13770	1727.53369	-1100.66089	769.47833	1319.55066	-1327.02563	934.02228	1552.12268	-1315.29749	917.64612	1373.07483	-1483.55078	970.59827	1523.04651	-1469.88428	976.21680	1263.74109	-1320.42102	647.64502	1298.15088	-1260.62219	480.93906	1307.76685	-1309.63721	286.20001	1357.48938	-1327.09167	79.38239	1400.51135	-1366.37439	46.81679	1371.55078	-1180.62683	47.59611	1603.05969	-1443.31995	643.59955	1574.04956	-1476.78455	466.46671	1590.66028	-1562.48608	295.83282	1554.35217	-1624.35645	81.08671	1508.30859	-1672.95789	50.73565	1528.30554	-1487.32202	37.07016																								 
2	0.010	1367.12231	-1250.50574	1608.88684	1498.82104	-1241.18604	1617.45044	1381.78345	-1374.97412	1559.44690	1511.66992	-1362.07458	1567.87659	1444.95850	-1395.02466	1408.29285	1449.71606	-1453.33936	1103.38123	1433.15784	-1273.28186	1327.22131	1423.38770	-1248.85571	1156.12085	1548.89429	-1444.85510	1239.01379	1282.03931	-1334.67053	1368.64917	1203.00952	-1372.54163	1177.41968	1177.80591	-1381.29639	1057.67102	1157.30469	-1374.53455	929.08704	1165.45789	-1370.20007	805.59106	1124.00867	-1402.40918	823.28619	1111.72632	-1400.36621	741.53351	1595.26636	-1304.18823	1353.14160	1686.48389	-1269.71704	1145.21362	1709.80725	-1228.39587	1043.27979	1718.07739	-1169.86975	919.80078	1683.65991	-1113.80078	836.92603	1730.44885	-1138.54114	825.23706	1723.61450	-1092.51685	767.72815	1320.65833	-1321.89441	933.07654	1553.12793	-1309.56372	916.58118	1374.42102	-1478.44031	969.31409	1524.33264	-1464.30591	974.95178	1263.96399	-1314.56653	646.72620	1299.02783	-1253.45178	480.45471	1308.46997	-1298.17041	285.04761	1357.91626	-1310.89539	78.04952	1400.93921	-1349.13660	44.50986	1371.19800	-1163.58350	47.94475	1604.70667	-1437.93494	642.87604	1575.11353	-1472.69666	465.95737	1591.60950	-1559.83008	295.93719	1555.13428	-1623.60754	81.67886	1509.34766	-1672.89233	52.14212	1528.41187	-1487.07593	36.88648																								 
3	0.020	1368.23376	-1244.51990	1607.93127	1500.01514	-1235.10120	1616.38647	1383.00903	-1368.80811	1557.79858	1512.92322	-1355.64709	1566.14966	1446.21704	-1388.03943	1407.11011	1450.89209	-1447.29028	1102.48035	1434.06250	-1266.25879	1325.80969	1424.01929	-1241.87524	1155.10571	1550.21851	-1437.91431	1238.03296	1282.95459	-1328.32288	1367.61377	1202.93921	-1369.74780	1177.36169	1176.90527	-1380.14282	1057.89587	1155.25708	-1375.83911	929.50684	1162.20703	-1373.73706	805.67639	1121.35437	-1406.05200	824.51068	1108.74670	-1406.57153	742.59747	1596.17078	-1296.57373	1351.69104	1686.57080	-1262.19214	1143.50171	1709.06592	-1220.92310	1041.20105	1716.08667	-1162.20349	917.76764	1680.35645	-1106.48279	835.24835	1727.37561	-1130.56604	823.19635	1719.12878	-1084.60242	765.52008	1321.61316	-1316.59033	931.97119	1554.13428	-1303.68347	915.55493	1375.79358	-1473.15540	967.93646	1525.66895	-1458.47583	973.60199	1264.39111	-1308.90759	645.57092	1299.99036	-1246.26465	480.19922	1309.36316	-1286.76489	284.05463	1358.36194	-1294.47583	76.48248	1399.00073	-1330.64575	39.97249	1370.28320	-1146.49939	48.44032	1606.14502	-1432.32837	642.15503	1576.11401	-1468.41199	465.52740	1592.48315	-1557.11731	296.07907	1555.84192	-1623.04492	82.64771	1509.99243	-1672.53833	53.42112	1528.33740	-1486.70691	36.49779																								 
4	0.030	1369.16467	-1238.39429	1606.92163	1500.93909	-1228.81946	1615.34070	1384.08398	-1362.46692	1556.18311	1513.95447	-1349.05737	1564.38074	1447.33032	-1380.84973	1405.99890	1451.87012	-1441.09326	1101.58813	1434.69556	-1258.90344	1324.40161	1424.65808	-1236.52686	1152.95862	1551.31970	-1430.93481	1237.11108	1283.74329	-1321.81238	1366.50085	1203.18518	-1365.51746	1177.17822	1175.95703	-1378.86230	1058.22949	1153.35693	-1376.90161	930.01074	1159.45459	-1376.52673	806.02704	1119.08337	-1409.15637	825.71130	1106.39063	-1412.01416	743.64856	1596.87427	-1288.78345	1350.24731	1686.45959	-1254.67126	1141.77466	1708.24512	-1213.66614	1039.13562	1714.02429	-1154.86450	915.74689	1677.04626	-1099.46985	833.59705	1724.16846	-1122.87830	821.17651	1714.96606	-1077.26868	763.59302	1322.45679	-1311.12292	931.05127	1554.90466	-1297.54871	914.54413	1377.06763	-1467.79968	966.48877	1526.85144	-1452.57703	972.23279	1264.05981	-1302.48059	644.22235	1300.81592	-1238.86072	479.82498	1310.21228	-1275.44995	283.17126	1358.92932	-1278.50696	75.44877	1402.24854	-1314.87927	40.41892	1369.66431	-1129.88208	49.13106	1607.32910	-1426.67200	641.50818	1577.04907	-1463.97437	465.09680	1593.26526	-1554.35620	296.29169	1556.28101	-1622.22266	83.34535	1510.61865	-1672.17371	54.89926	1528.52686	-1486.34192	36.37512																								 
5	0.040	1370.03638	-1231.95508	1606.02283	1501.70959	-1222.28198	1614.28625	1385.02051	-1355.70667	1554.51648	1514.90601	-1342.27344	1562.74438	1448.30127	-1373.45374	1404.91931	1452.81799	-1434.68542	1100.80530	1434.48828	-1255.53613	1322.36365	1424.96252	-1229.78198	1151.47949	1552.25366	-1423.72156	1236.17200	1284.38892	-1315.06616	1365.43262	1202.90381	-1362.23352	1177.27454	1175.03674	-1377.33313	1058.63135	1151.73853	-1377.37854	930.55200	1157.14294	-1378.92188	806.49615	1117.14990	-1411.70349	826.88226	1104.66553	-1416.66565	744.66711	1597.45081	-1280.80432	1348.76331	1686.23596	-1247.17261	1139.96643	1707.35681	-1206.43530	1037.01929	1711.93689	-1147.66553	913.64258	1673.96204	-1092.81982	831.98987	1720.95715	-1115.45691	819.01135	1710.64636	-1070.07275	761.32959	1323.05383	-1305.32910	930.27240	1555.55017	-1291.25488	913.47565	1378.36389	-1462.21472	965.04248	1528.07947	-1446.46313	970.78461	1263.72314	-1296.65295	642.84442	1301.93298	-1231.24866	479.69086	1311.20605	-1264.24146	282.59024	1359.56726	-1262.80688	74.74355	1403.11047	-1298.30078	39.16161	1369.54480	-1113.96191	49.79313	1608.24988	-1420.60144	640.73267	1577.98059	-1459.29016	464.63635	1594.05017	-1551.41870	296.53650	1556.96277	-1621.65662	84.46227	1511.36255	-1671.91687	56.56320	1528.61926	-1485.97815	36.23850																								 
6	0.050	1370.69702	-1225.34937	1605.09753	1502.43518	-1215.56848	1613.30408	1385.84338	-1348.83936	1552.97900	1515.68750	-1335.25842	1561.04700	1449.12329	-1365.76709	1403.82043	1453.74146	-1428.04224	1100.00732	1434.85999	-1248.06775	1320.93762	1425.12134	-1223.31140	1149.97119	1553.09558	-1416.28003	1235.32678	1284.92700	-1307.96448	1364.35779	1202.69922	-1358.67200	1177.38635	1174.14990	-1375.44775	1059.13306	1150.28271	-1377.58386	931.17719	1155.21777	-1380.79797	807.13470	1115.58374	-1413.60144	828.06940	1103.60437	-1420.43921	745.59760	1597.89893	-1272.46216	1347.31995	1686.03186	-1239.44629	1138.21545	1706.49365	-1199.26025	1034.93726	1709.71838	-1140.55859	911.49542	1670.50378	-1086.36731	829.91870	1717.73669	-1108.22375	816.94910	1706.23413	-1063.06641	758.96027	1323.60083	-1299.61780	929.20386	1556.10254	-1284.67212	912.36639	1379.41003	-1457.71118	964.30023	1529.14355	-1440.10046	969.28595	1263.50549	-1290.67432	641.56299	1302.86926	-1223.29504	479.26135	1312.41736	-1253.23206	282.28720	1360.31189	-1247.58264	74.32402	1404.36230	-1282.53796	38.66401	1368.99219	-1098.08679	50.79916	1608.01147	-1413.34937	639.18469	1578.77625	-1454.15625	463.99213	1594.79041	-1548.06824	296.67212	1557.56567	-1620.53711	85.12952	1512.05493	-1671.40796	58.12616	1528.72510	-1485.54285	36.02473																								 
